<?xml version="1.0" encoding="UTF-8" standalone="no"?> <!-- Created with Inkscape (http://www.inkscape.org/) --> <svg xmlns:dc="http://purl.org/dc/elements/1.1/" xmlns:cc="http://creativecommons.org/ns#" xmlns:rdf="http://www.w3.org/1999/02/22-rdf-syntax-ns#" xmlns:svg="http://www.w3.org/2000/svg" xmlns="http://www.w3.org/2000/svg" xmlns:sodipodi="http://sodipodi.sourceforge.net/DTD/sodipodi-0.dtd" xmlns:inkscape="http://www.inkscape.org/namespaces/inkscape" width="300" height="300" id="svg2" sodipodi:version="0.32" inkscape:version="0.46" sodipodi:docname="Triad Logo.svg" inkscape:output_extension="org.inkscape.output.svg.inkscape"> <defs id="defs4"></defs> <metadata id="metadata7"></metadata> <g inkscape:label="Ebene 1" inkscape:groupmode="layer" id="layer1" style="display:inline"> <g id="g3257"> <path id="path2403" d="M 150 20.03125 C 122.27767 46.447061 105 83.713589 105 125 C 105 166.28641 122.27767 203.55294 150 229.96875 C 177.72233 203.55294 195 166.28641 195 125 C 195 83.713591 177.72233 46.447062 150 20.03125 z " style="fill:none;stroke:#000000;stroke-width:15.00000286;stroke-miterlimit:4;stroke-dasharray:none;stroke-opacity:1"></path> <path id="path3211" d="M 150 155 C 135.92338 155 122.30993 157.00288 109.4375 160.75 C 125.37455 223.5173 182.2978 270 250 270 C 264.07662 270 277.69007 267.99712 290.5625 264.25 C 274.62545 201.48271 217.70221 155 150 155 z " style="fill:none;stroke:#000000;stroke-width:15.00000286;stroke-miterlimit:4;stroke-dasharray:none;stroke-opacity:1"></path> <path id="path3250" d="M 150 155 C 82.297795 155 25.374547 201.4827 9.4375 264.25 C 22.309929 267.99712 35.923385 270 50 270 C 117.7022 270 174.62545 223.51729 190.5625 160.75 C 177.69007 157.00288 164.07662 155 150 155 z " style="fill:none;stroke:#000000;stroke-width:15.00000286;stroke-miterlimit:4;stroke-dasharray:none;stroke-opacity:1;display:inline"></path> </g> </g> <g inkscape:groupmode="layer" id="layer2" inkscape:label="Original" style="display:none"> <path style="fill:none;stroke:#000000;stroke-width:9.14183617;stroke-miterlimit:4;stroke-dasharray:none;stroke-opacity:1" transform="matrix(1.6776855,0,0,1.6047422,-144.13222,-11.976116)" d="M 202.14286,85.35714 A 86.428574,90.35714 0 1 1 29.285713,85.35714 A 86.428574,90.35714 0 1 1 202.14286,85.35714 z" sodipodi:ry="90.35714" sodipodi:rx="86.428574" sodipodi:cy="85.35714" sodipodi:cx="115.71429" id="path3228" sodipodi:type="arc"></path> <path sodipodi:type="arc" id="path3230" sodipodi:cx="115.71429" sodipodi:cy="85.35714" sodipodi:rx="86.428574" sodipodi:ry="90.35714" d="M 202.14286,85.35714 A 86.428574,90.35714 0 1 1 29.285713,85.35714 A 86.428574,90.35714 0 1 1 202.14286,85.35714 z" transform="matrix(1.6776855,0,0,1.6047422,55.867851,-11.976116)" style="fill:none;stroke:#000000;stroke-width:9.14183617;stroke-miterlimit:4;stroke-dasharray:none;stroke-opacity:1"></path> <path style="fill:none;stroke:#000000;stroke-width:9.14183617;stroke-miterlimit:4;stroke-dasharray:none;stroke-opacity:1" transform="matrix(1.6776855,0,0,1.6047422,-44.13218,163.02388)" d="M 202.14286,85.35714 A 86.428574,90.35714 0 1 1 29.285713,85.35714 A 86.428574,90.35714 0 1 1 202.14286,85.35714 z" sodipodi:ry="90.35714" sodipodi:rx="86.428574" sodipodi:cy="85.35714" sodipodi:cx="115.71429" id="path3232" sodipodi:type="arc"></path> </g> </svg> 